<?xml version="1.0" encoding="utf-8"?>
<!DOCTYPE svg PUBLIC "-//W3C//DTD SVG 1.0//EN" "http://www.w3.org/TR/2001/REC-SVG-20010904/DTD/svg10.dtd">
<svg version="1.0" xmlns="http://www.w3.org/2000/svg" width="809px" height="290px" viewBox="0 0 809 290" preserveAspectRatio="xMidYMid meet">
 <g fill="none">
  <path d="M0 145.01 l0 -145.01 404.50 0 404.50 0 0 145.01 0 145.01 -404.50 0 -404.50 0 0 -145.01z m467.32 137.57 c9.16 -2.05 14.60 -4.10 24.47 -9.35 11.88 -6.34 23.09 -14.93 34.11 -26.19 9.73 -9.97 17.84 -20.27 25.85 -32.91 2.96 -4.67 9.73 -16.65 11.64 -20.61 0.86 -1.76 1.67 -2.58 3.77 -3.77 7.78 -4.34 21.99 -14.41 29.81 -21.04 4.01 -3.39 4.44 -3.67 6.49 -3.67 l2.19 0 0.29 2.29 c0.14 1.24 0.95 4.29 1.72 6.77 0.81 2.48 1.48 5.29 1.48 6.25 l0 1.76 -3.67 1.29 c-14.55 5.15 -22.56 10.30 -22.56 14.45 0 2.67 5.25 5.49 11.26 6.06 5.82 0.52 13.45 -2.05 18.17 -6.20 3.72 -3.24 5.87 -7.92 6.20 -13.31 l0.29 -4.10 1.96 -0.52 c1.10 -0.29 3.10 -0.91 4.48 -1.43 1.38 -0.48 3.58 -0.91 4.87 -0.91 2.39 0 2.39 0 2.39 1.57 0 0.81 -0.43 2.91 -1 4.63 -1.81 5.82 -0.95 9.97 2.86 13.79 6.44 6.44 18.08 7.54 34.15 3.15 9.49 -2.58 20.37 -6.77 41.36 -16.03 24.14 -10.64 33.87 -13.93 47.13 -15.98 6.92 -1.10 21.56 -1.24 26.47 -0.24 6.30 1.24 11.02 3.24 15.26 6.44 1.86 1.38 1.86 1.34 -0.43 -1.05 -5.82 -6.06 -18.75 -9.73 -31.29 -8.92 -13.83 0.86 -26.38 4.01 -43.17 10.83 -6.68 2.72 -21.66 9.16 -25.76 11.07 -3.20 1.53 -15.50 6.20 -20.18 7.73 -9.35 3.01 -13.79 3.77 -22.51 3.77 -7.54 0 -7.97 -0.05 -9.97 -1.19 -3.34 -1.91 -4.05 -3.24 -4.25 -7.78 -0.19 -4.29 0.29 -6.96 1.34 -7.54 0.38 -0.19 2.34 -0.81 4.29 -1.38 9.83 -2.86 17.36 -6.34 25.57 -11.83 8.63 -5.77 14.50 -12.21 14.50 -15.84 0 -1.81 -3.24 -4.58 -6.44 -5.49 -5.29 -1.57 -13.88 -0.29 -21.08 3.05 -7.49 3.53 -15.45 10.73 -20.70 18.79 -1.57 2.39 -3.43 4.67 -4.15 5.06 -2.81 1.48 -12.31 4.34 -14.50 4.34 -2.19 0 -2.24 -0.05 -2.72 -1.76 -1.91 -7.35 -2 -15.07 -0.29 -20.51 1.81 -5.77 6.11 -11.40 10.35 -13.55 1 -0.52 1.81 -1.10 1.81 -1.34 0 -0.72 -5.49 0.48 -8.49 1.86 -6.06 2.81 -10.35 7.11 -13.59 13.59 -2.67 5.34 -12.31 14.07 -26.09 23.61 -7.01 4.87 -9.35 6.20 -10.97 6.20 -2.77 0 -2.05 -2.19 4.77 -15.60 6.53 -12.78 6.68 -13.17 4.29 -14.45 -2.77 -1.48 -4.82 -0.14 -9.97 6.63 -2.39 3.15 -6.63 8.06 -9.40 10.97 l-5.06 5.29 2.19 0 c2.15 0 2.19 0 2.15 1.57 0 0.91 -1.48 4.48 -3.67 8.92 l-3.67 7.39 -4.77 1.81 c-5.39 2.05 -15.88 5.49 -21.23 7.01 -14.07 4.01 -30.34 10.16 -42.45 16.08 -24.71 12.12 -41.36 25.90 -47.84 39.59 -1.29 2.77 -1.53 3.77 -1.53 6.82 0 2.53 0.29 4.05 0.86 5.15 4.67 8.63 17.79 12.21 32.63 8.87z m-403.26 -26.47 c10.45 -1.62 23.23 -6.68 33.20 -13.17 22.75 -14.79 38.59 -34.11 56.43 -68.83 l2.58 -5.01 2.86 0.05 c1.53 0.05 6.63 0.24 11.26 0.43 9.21 0.43 12.69 0.10 23.42 -1.96 25.81 -5.06 53.85 -21.32 74.75 -43.36 16.46 -17.36 25.62 -39.02 22.18 -52.47 -4.15 -16.46 -19.27 -25 -49.37 -27.95 -7.58 -0.72 -31.82 -0.29 -41.50 0.76 -30.67 3.34 -64.54 13.02 -92.30 26.43 -39.35 19.03 -63.20 39.88 -66.54 58.24 -2.48 13.74 9.83 24.95 30.05 27.24 4.29 0.48 9.30 0.33 11.93 -0.38 0.86 -0.24 0.05 -0.48 -3.10 -0.95 -11.16 -1.62 -18.56 -6.63 -20.80 -14.12 -0.91 -2.86 -1 -4.10 -0.81 -9.78 0.29 -7.49 1.43 -11.88 4.82 -18.46 5.44 -10.45 17.08 -22.42 29.48 -30.19 9.11 -5.72 22.56 -12.55 30.96 -15.69 11.11 -4.20 19.80 -7.01 30.29 -9.97 3.91 -1.10 16.98 -4.10 19.56 -4.48 1.34 -0.19 5.63 -0.91 9.54 -1.57 12.74 -2.19 20.37 -2.81 38.88 -3.05 14.21 -0.19 18.46 -0.10 23.18 0.52 18.75 2.48 27.43 7.92 30.96 19.37 1.10 3.63 1.48 12.69 0.76 17.70 -2.19 14.93 -11.78 31.29 -27.28 46.56 -19.60 19.22 -44.50 31.24 -70.64 34.01 -2.58 0.24 -7.87 0.48 -11.83 0.48 l-7.16 0 0 -2.10 c0 -1.76 0.91 -3.67 5.96 -12.88 8.78 -15.88 14.79 -25.95 23.04 -38.40 12.69 -19.13 19.84 -28.33 30.81 -39.54 l5.29 -5.44 -3.10 1.53 c-14.17 7.01 -31.05 22.85 -45.84 42.93 -9.44 12.83 -17.60 26.04 -30.24 49.13 -3.05 5.63 -7.44 13.59 -9.64 17.65 -13.31 24.23 -23.85 39.35 -36.11 51.95 -12.21 12.45 -23.61 19.80 -36.82 23.61 -5.96 1.72 -5.63 2.19 0.91 1.19z m201.15 -58.43 c2.24 -1.14 4.72 -2.62 5.49 -3.34 1.24 -1.05 1.14 -1.05 -0.72 0.19 -2.81 1.86 -5.39 2.58 -8.35 2.39 l-2.39 -0.14 -0.14 -2.86 c-0.10 -2.19 0.14 -3.58 1.10 -6.11 1.34 -3.34 6.96 -12.64 11.11 -18.41 1.34 -1.81 2.86 -4.15 3.39 -5.10 l1 -1.81 -1.10 -1.14 c-0.57 -0.62 -2.67 -1.91 -4.63 -2.81 -4.87 -2.19 -5.25 -2.62 -5.25 -5.63 0 -3.20 1.72 -6.58 5.10 -10.30 2.39 -2.58 2.53 -2.81 1.48 -2.81 -2 0 -7.73 3.10 -10.26 5.58 -2.86 2.77 -5.10 6.87 -4.72 8.49 0.48 1.86 2.62 3.96 5.82 5.77 2.96 1.67 3.05 1.76 3.05 3.58 0 2.15 -0.57 3.39 -5.77 12.40 -4.34 7.54 -7.73 14.50 -8.59 17.65 -0.95 3.63 0.24 6.15 3.58 7.30 2.39 0.81 4.96 0.14 10.78 -2.86z m228.06 -0.48 c1.67 -0.72 3.91 -1.86 4.96 -2.53 2.77 -1.76 8.97 -6.44 9.78 -7.44 0.38 -0.43 -1.24 0.67 -3.63 2.43 -5.96 4.48 -9.11 5.91 -13.17 5.91 -2.67 0 -3.29 -0.14 -3.72 -0.91 -0.81 -1.57 -0.57 -7.68 0.48 -11.40 1.24 -4.39 5.25 -13.69 8.63 -19.89 2.53 -4.63 2.72 -4.82 6.15 -6.92 l3.58 -2.15 -1.76 -0.14 c-1.67 -0.14 -1.81 -0.29 -1.81 -1.62 0 -2.77 13.07 -23.80 23.66 -38.06 14.41 -19.46 28.91 -33.20 41.12 -39.02 3.24 -1.57 4.20 -1.76 8.11 -1.91 l4.39 -0.19 0 2.91 c0 3.29 -0.48 4.39 -4.67 11.16 -6.82 11.11 -20.51 26.90 -34.11 39.54 -7.58 6.96 -13.88 12.12 -23.66 19.22 -10.21 7.44 -9.97 7.54 0.67 0.33 20.51 -13.88 41.98 -34.20 56.81 -53.76 6.34 -8.35 10.59 -16.50 9.92 -19.08 -0.43 -1.62 -3.20 -3.96 -5.20 -4.34 -2.86 -0.52 -9.54 0.91 -15.17 3.29 -15.41 6.44 -32.77 22.18 -49.80 45.17 -10.88 14.69 -19.60 29.19 -30.39 50.42 -2.05 4.01 -3.58 6.25 -6.11 8.97 l-3.34 3.58 1.76 0 1.76 0 -0.24 2.77 c-0.14 1.48 -0.43 3.72 -0.62 5.01 -0.57 4.01 2.19 8.73 5.82 9.87 2.29 0.76 6.53 0.19 9.78 -1.24z m-200.34 -0.67 c3.24 -0.95 11.64 -6.20 14.98 -9.25 1.10 -1.05 0.43 -0.62 -1.67 0.95 -5.01 3.77 -9.59 5.91 -12.69 5.91 -3.34 0 -3.67 -0.52 -3.48 -5.34 0.19 -3.48 0.43 -4.48 2.19 -8.16 3.77 -7.78 9.25 -14.55 15.65 -19.32 3.67 -2.72 7.20 -4.44 11.83 -5.77 3.29 -0.95 4.53 -1.05 11.35 -0.91 l7.63 0.14 -1.34 -1.05 c-5.91 -4.77 -19.99 -3.43 -31.39 2.91 -9.11 5.10 -18.13 14.88 -22.23 23.99 -0.91 2.05 -2.34 4.20 -3.91 5.77 l-2.43 2.48 2 0 c1.86 0 2 0.10 2 1.29 0 2.39 1.81 5.25 3.96 6.30 2.48 1.24 3.72 1.24 7.54 0.05z m58.34 -0.81 c0.67 -0.62 2.48 -3.43 4.10 -6.20 2.05 -3.48 4.20 -6.34 7.01 -9.25 4.05 -4.20 4.10 -4.25 2.58 -4.25 -1.38 0 -1.48 -0.10 -1.48 -1.81 0 -1.34 1 -3.58 4.05 -9.16 l4.05 -7.39 -1.24 -1.05 c-1.53 -1.38 -2.96 -1.38 -5.01 0 -1.57 1.05 -2.48 2.43 -8.59 12.97 -2.39 4.05 -4.15 6.39 -8.01 10.40 l-4.96 5.10 1.96 0 c1.96 0 2 0.05 2 1.62 0 0.91 -0.52 2.77 -1.19 4.20 -1.38 3.01 -1.48 4.25 -0.33 5.25 1.72 1.53 3.24 1.43 5.06 -0.43z m39.88 -0.62 c3.10 -1.57 5.68 -3.48 2.91 -2.15 -0.86 0.43 -2.72 0.91 -4.05 1.05 -3.24 0.33 -3.86 -0.38 -3.48 -3.77 0.38 -3.15 2.19 -6.92 7.54 -15.69 5.10 -8.44 7.58 -13.50 7.58 -15.36 0 -0.81 -0.48 -1.81 -1.24 -2.58 -1.05 -1.05 -1.53 -1.19 -3.72 -1 -4.05 0.33 -13.21 5.29 -18.41 9.92 -0.91 0.81 -0.05 0.29 1.91 -1.14 4.44 -3.24 7.30 -4.53 9.92 -4.58 l2 0 0 2.53 c0 2.19 -0.38 3.15 -3.39 8.44 -5.49 9.73 -9.02 17.27 -9.30 19.89 -0.29 2.19 -0.19 2.53 1.24 4.10 2.62 3.01 5.10 3.05 10.49 0.33z m32.10 0.05 c3.39 -1.57 11.31 -6.87 11.31 -7.49 0 -0.14 -1.34 0.72 -2.96 1.86 -4.34 3.05 -6.87 4.25 -9.92 4.48 -3.86 0.38 -4.44 -0.33 -4.20 -5.06 0.48 -10.02 11.26 -24.47 22.80 -30.72 5.72 -3.10 7.44 -3.43 16.60 -3.43 l8.25 0 -1.43 -1.29 c-1.76 -1.57 -4.05 -2.29 -8.49 -2.62 -5.63 -0.43 -14.07 1.76 -20.51 5.39 -6.82 3.82 -14.45 10.64 -19.37 17.36 -1.05 1.43 -3.77 4.48 -6.01 6.82 l-4.05 4.15 2.05 0 2 0 -0.29 3.72 c-0.29 3.34 -0.24 3.82 0.81 5.34 0.62 0.91 2.05 2.15 3.24 2.77 2.81 1.43 5.06 1.14 10.16 -1.29z m33.72 -0.05 c2.86 -1.48 4.82 -2.81 4.05 -2.81 -0.24 0 -1 0.29 -1.67 0.67 -0.67 0.38 -2.48 0.67 -4.15 0.72 -3.39 0 -3.96 -0.52 -3.96 -3.72 0 -3.86 2.62 -10.02 8.30 -19.60 1.48 -2.48 2.67 -4.82 2.67 -5.15 0 -0.95 -2.19 -2.15 -3.29 -1.81 -0.52 0.14 -2.62 2.15 -4.63 4.44 -2.05 2.29 -5.87 6.34 -8.49 9.06 l-4.82 4.87 2.29 0 c2.19 0 2.24 0.05 2.24 1.43 0 0.81 -0.33 2.72 -0.81 4.29 -0.72 2.62 -0.72 2.96 0.05 4.91 0.95 2.53 2.39 3.91 4.58 4.53 2 0.48 4.01 0.05 7.63 -1.81z m76.08 -0.24 c5.06 -2.43 7.49 -4.15 3.34 -2.34 -1.72 0.76 -4.10 1.38 -5.96 1.48 -4.05 0.33 -4.48 -0.10 -4.20 -4.53 0.14 -2.77 0.57 -4.05 2.58 -8.25 3.48 -7.11 10.45 -17.74 14.41 -21.99 1.86 -1.96 1.81 -3.01 -0.14 -3.72 -3.67 -1.38 -8.35 2.10 -16.03 11.93 -1.76 2.24 -5.15 6.15 -7.58 8.73 l-4.39 4.63 2.19 0 c2.58 0 2.67 0.29 1.38 5.29 -0.95 3.82 -0.48 6.15 1.81 8.78 2.81 3.20 6.01 3.20 12.59 0z m-202.58 0 c1.76 -0.91 3.86 -2.19 4.63 -2.86 1.10 -0.95 0.86 -0.86 -1.14 0.33 -2.24 1.34 -3.01 1.57 -5.72 1.57 l-3.15 0 0.05 -4.29 c0 -4.01 0.14 -4.58 1.96 -8.35 1.05 -2.24 2.77 -5.49 3.86 -7.25 1.10 -1.76 2.62 -4.48 3.43 -6.06 l1.43 -2.86 -1.29 -0.95 c-2.24 -1.81 -1.62 -2.29 -14.36 11.31 l-5.91 6.30 2.43 0 c2.34 0 2.43 0.05 2.43 1.38 0 0.76 -0.33 2.29 -0.76 3.43 -1 2.96 -0.95 5.34 0.24 7.25 2.24 3.63 6.30 4.01 11.88 1.05z m214.18 -7.01 c1.34 -1 2.48 -1.96 2.48 -2.10 0 -0.24 -3.91 2.48 -6.44 4.53 l-1.43 1.10 1.43 -0.86 c0.81 -0.43 2.58 -1.67 3.96 -2.67z m-33.49 -3.34 l1.38 -1.57 -1.53 1.38 c-1.48 1.34 -1.81 1.72 -1.43 1.72 0.10 0 0.76 -0.72 1.57 -1.53z m-198.91 -0.95 l1.38 -1.57 -1.53 1.38 c-0.86 0.81 -1.57 1.48 -1.57 1.57 0 0.38 0.38 0.05 1.72 -1.38z"/>
  <path d="M447.10 278.09 c-3.39 -1.10 -5.63 -3.29 -6.15 -5.96 -0.14 -0.95 -0.19 -3.43 -0.10 -5.53 0.19 -3.20 0.52 -4.34 2.19 -7.68 6.06 -12.07 19.03 -23.52 38.26 -33.68 10.97 -5.82 20.13 -9.54 41.02 -16.55 8.78 -2.96 17.12 -5.82 18.51 -6.39 1.38 -0.57 3.58 -1 4.87 -1 l2.39 0 0 1.72 c0 1.29 -0.81 3.01 -3.29 7.06 -7.92 12.69 -16.79 23.99 -27.67 35.20 -17.12 17.65 -32.20 27.76 -47.99 32.20 -3.48 0.95 -5.68 1.24 -11.69 1.38 -6.49 0.19 -7.78 0.10 -10.35 -0.76z"/>
  <path d="M593.39 196.86 c-1.57 -0.52 -1.67 -0.67 -1.81 -3.05 -0.14 -2.43 -0.14 -2.48 2.24 -4.34 3.15 -2.53 9.35 -4.87 12.74 -4.87 l2.58 0 0 2.29 c-0.05 7.35 -8.20 12.55 -15.74 9.97z"/>
  <path d="M644.91 177.35 c0 -3.48 9.78 -15.79 16.79 -21.23 1.53 -1.14 4.20 -2.77 5.91 -3.58 2.72 -1.24 3.91 -1.53 7.87 -1.72 5.72 -0.29 6.15 -0.05 6.15 3.43 0 1.91 -0.33 3.01 -1.34 4.63 -4.53 7.16 -25.90 19.99 -33.25 19.99 -2.10 0 -2.15 -0.05 -2.15 -1.53z"/>
 </g>
 <g fill="#46188f">
  <path d="M446.71 284.34 c-6.39 -1.57 -11.02 -4.77 -13.45 -9.21 -0.67 -1.24 -0.86 -2.67 -0.86 -6.58 0 -4.63 0.10 -5.25 1.53 -8.25 6.49 -13.69 23.13 -27.48 47.84 -39.59 12.12 -5.91 28.38 -12.07 42.45 -16.08 5.34 -1.53 15.84 -4.96 21.23 -7.01 l4.77 -1.81 3.63 -7.39 c4.20 -8.44 4.05 -9.30 -0.67 -5.01 -6.01 5.49 -13.31 10.45 -19.65 13.40 -7.68 3.53 -13.59 2.48 -16.03 -2.91 -1.05 -2.29 -1.14 -6.39 -0.24 -9.44 0.95 -3.24 0.05 -2.96 -4.63 1.38 -12.07 11.26 -20.80 15.55 -29.14 14.31 -2.67 -0.43 -5.29 -2.53 -6.53 -5.29 -1 -2.19 -1.19 -6.82 -0.38 -10.06 0.29 -1.19 0.43 -2.24 0.29 -2.43 -0.19 -0.14 -2.05 1.38 -4.25 3.43 -7.39 6.96 -14.21 11.45 -19.22 12.69 -2.81 0.72 -6.82 -0.05 -8.25 -1.62 -2.43 -2.58 -3.10 -6.77 -1.76 -11.11 0.38 -1.29 0.72 -2.39 0.72 -2.43 0 -0.10 -0.33 -0.14 -0.76 -0.14 -0.43 0 -2.19 1.34 -3.91 2.91 -10.97 10.16 -20.75 14.55 -27.05 12.16 -3.96 -1.53 -6.01 -5.49 -5.10 -9.92 0.29 -1.48 0.29 -2.29 0 -2.29 -0.29 0 -1.96 1.29 -3.82 2.86 -8.68 7.49 -15.98 10.88 -20.70 9.59 -3.91 -1.05 -5.68 -4.48 -4.82 -9.35 0.43 -2.67 4.34 -10.83 9.35 -19.80 3.15 -5.53 4.05 -8.11 2.91 -8.11 -3.10 0 -13.79 8.01 -23.18 17.36 -6.34 6.30 -7.58 7.82 -10.21 12.31 -1.62 2.81 -3.48 5.63 -4.15 6.30 -2.19 2.24 -6.49 2.19 -8.25 -0.05 -1.48 -1.91 -1.29 -3.15 1.76 -10.02 0.52 -1.24 -1.62 -0.57 -3.01 0.86 -2.19 2.34 -8.63 7.01 -11.83 8.63 -3.72 1.91 -8.73 2.39 -11.40 1.10 -2.67 -1.24 -3.91 -3.63 -3.86 -7.39 0.05 -1.72 0.43 -4.01 0.81 -5.10 0.76 -2 0.72 -2.05 -0.19 -2.05 -0.52 0 -2.81 1.62 -5.10 3.67 -5.53 4.87 -13.40 9.97 -17.22 11.11 -6.34 2 -11.50 0.81 -13.36 -3.05 -0.57 -1.10 -1 -2.58 -1 -3.29 0 -0.72 -0.24 -1.29 -0.48 -1.29 -0.29 0 -2.34 1.48 -4.63 3.34 -4.48 3.63 -10.73 7.11 -15.12 8.35 -4.48 1.29 -8.59 0.19 -10.16 -2.77 -2.15 -4.15 0.05 -10.73 8.54 -25.33 3.67 -6.30 5.63 -10.06 5.63 -10.73 0 -0.24 -1.34 -1.19 -2.96 -2.10 -4.53 -2.53 -6.11 -4.58 -6.11 -7.97 0 -6.30 9.44 -14.79 16.46 -14.79 2.24 0 3.58 0.57 3.58 1.53 0 0.19 -1.38 1.86 -3.05 3.72 -3.10 3.34 -5.53 7.49 -5.53 9.30 0 1.43 1.10 2.29 5.25 4.20 4.72 2.19 5.91 3.48 5.58 6.01 -0.14 1.05 -0.95 2.96 -1.81 4.20 -10.21 14.83 -14.17 21.80 -14.64 25.71 -0.19 1.67 -0.05 2.15 0.62 2.39 2.53 1 8.82 -2.62 15.74 -8.97 3.05 -2.86 4.01 -4.10 5.34 -7.01 3.29 -7.25 8.82 -14.17 15.79 -19.65 8.40 -6.73 18.65 -10.45 28.67 -10.45 6.96 0 12.40 1.96 13.64 4.91 1.19 2.81 -0.05 3.96 -2.81 2.67 -3.05 -1.38 -11.78 -1.29 -16.84 0.24 -6.68 2 -11.59 5.10 -17.22 10.83 -9.35 9.54 -15.45 24.76 -9.92 24.76 1.86 0 7.63 -3.15 12.21 -6.73 4.58 -3.58 12.64 -11.35 20.27 -19.65 4.25 -4.58 4.34 -4.63 6.49 -4.63 2.81 0 4.72 1.38 4.72 3.39 0 1.53 -1.81 5.34 -4.87 10.35 -3.24 5.29 -5.72 11.02 -5.96 13.98 -0.19 1.81 -0.10 2.81 0.29 3.05 2.19 1.34 10.21 -3.77 18.36 -11.69 6.20 -6.01 7.63 -7.92 12.45 -16.46 3.96 -7.01 5.10 -8.59 7.01 -9.59 2.10 -1.10 5.39 -1.05 6.96 0.14 2.34 1.72 2 3.20 -2.24 11.02 -2.10 3.86 -3.96 7.44 -4.20 7.97 -0.19 0.52 1.86 -1.10 4.58 -3.58 6.63 -6.15 13.21 -11.02 18.60 -13.74 3.96 -2 4.87 -2.24 8.16 -2.39 4.20 -0.19 5.39 0.24 6.49 2.39 1.57 3.01 -0.05 7.20 -7.35 19.32 -4.91 8.11 -6.44 11.07 -7.20 13.69 -0.91 3.39 0.57 3.77 5.20 1.43 4.67 -2.29 15.88 -12.64 20.37 -18.79 4.91 -6.68 12.55 -13.55 19.37 -17.36 3.53 -2 9.78 -4.25 14.02 -5.06 3.39 -0.67 11.83 -0.43 14.60 0.43 2.81 0.91 5.10 3.15 5.10 5.06 0 2.15 -0.57 2.39 -3.10 1.38 -3.05 -1.14 -13.07 -0.72 -17.12 0.72 -10.54 3.77 -21.04 14.07 -26 25.52 -6.34 14.74 3.82 12.16 21.42 -5.44 4.10 -4.05 9.11 -9.25 11.21 -11.59 3.77 -4.15 3.82 -4.15 6.11 -4.15 2.62 0 4.63 1.53 4.63 3.43 0 0.62 -1.19 3.15 -2.62 5.63 -4.05 6.96 -7.25 13.40 -8.11 16.41 -2.81 9.64 7.63 5.06 21.75 -9.59 4.44 -4.58 5.34 -5.87 7.82 -10.68 10.83 -21.32 19.56 -35.78 30.43 -50.51 23.09 -31.20 46.51 -48.65 65.11 -48.65 6.96 0 9.73 4.53 7.11 11.50 -3.15 8.40 -14.88 23.56 -29.67 38.40 -14.93 14.98 -29.43 26.47 -46.75 37.16 -2.86 1.76 -6.01 3.72 -6.96 4.34 -1.34 0.81 -2.43 2.39 -4.63 6.49 -7.11 13.36 -10.49 24.18 -8.68 27.62 0.76 1.34 3.48 1.14 6.92 -0.43 6.96 -3.29 22.51 -17.32 29.81 -26.81 6.77 -8.82 10.40 -11.78 14.88 -12.26 2.96 -0.29 4.82 0.33 5.87 1.96 0.72 1.05 0.72 1.29 0.05 2.53 -0.38 0.76 -1.05 1.72 -1.53 2.10 -2.58 2.10 -11.31 15.41 -14.60 22.13 -3.67 7.63 -3.63 10.68 0.19 10.06 8.35 -1.34 25.57 -15.65 37.21 -30.91 2.39 -3.10 4.91 -5.96 5.68 -6.34 0.72 -0.38 2.53 -0.72 4.01 -0.72 2.19 0 2.86 0.19 3.82 1.19 2.15 2.10 1.76 3.43 -5.01 16.60 -3.39 6.68 -6.20 12.26 -6.20 12.40 0 0.48 3.91 -1.96 9.54 -5.87 13.79 -9.54 23.42 -18.27 26.09 -23.61 3.24 -6.49 7.54 -10.78 13.59 -13.59 5.15 -2.39 13.74 -2.96 14.12 -0.95 0.05 0.43 -1.14 1.38 -3.15 2.48 -9.78 5.29 -14.55 15.79 -12.45 27.38 0.91 5.10 1.38 6.39 2.24 6.39 1.05 0 11.35 -3.43 13.07 -4.34 0.72 -0.38 2.58 -2.67 4.15 -5.06 5.25 -8.06 13.21 -15.26 20.70 -18.79 5.20 -2.43 9.16 -3.34 15.41 -3.63 6.73 -0.29 10.16 0.43 12.83 2.77 5.68 5.01 1.29 12.83 -12.35 21.94 -8.20 5.53 -15.69 9.02 -25.57 11.88 -1.96 0.57 -3.91 1.19 -4.29 1.38 -1.72 0.91 -1.86 7.68 -0.14 9.97 0.52 0.72 1.91 1.81 3.05 2.48 1.96 1.10 2.53 1.19 8.54 1.19 7.20 -0.05 12.35 -0.95 21.08 -3.77 4.67 -1.53 16.98 -6.20 20.18 -7.73 10.73 -5.01 31.67 -13.59 38.40 -15.79 24.18 -7.82 45.22 -8.35 58.77 -1.53 3.15 1.57 7.20 5.10 8.30 7.20 1.14 2.24 0.67 5.63 -0.86 5.63 -0.19 0 -1 -0.95 -1.76 -2.10 -2.58 -3.72 -8.68 -6.96 -16.46 -8.73 -4.82 -1.10 -17.46 -1.10 -24.61 0.05 -13.26 2.05 -22.99 5.34 -47.13 15.98 -33.58 14.79 -45.94 18.65 -59.48 18.65 -9.40 0 -14.79 -1.67 -18.89 -5.77 -4.48 -4.48 -5.20 -11.07 -2.05 -19.27 0.38 -1 -1.10 -0.95 -4.20 0.19 -1.38 0.52 -3.39 1.14 -4.48 1.43 l-1.96 0.52 -0.29 4.10 c-0.19 3.43 -0.52 4.67 -1.96 7.58 -2.91 5.87 -7.63 9.25 -15.69 11.31 -7.11 1.81 -16.36 0.33 -19.51 -3.10 -1.72 -1.81 -1.86 -5.34 -0.33 -7.78 2.10 -3.43 8.44 -7.06 19.22 -10.97 3.10 -1.14 5.77 -2.19 5.87 -2.29 0.14 -0.10 -0.43 -2.34 -1.29 -4.91 -0.81 -2.58 -1.62 -5.68 -1.76 -6.92 -0.19 -1.67 -0.48 -2.29 -1.05 -2.29 -0.43 0 -2.67 1.67 -5.06 3.67 -7.82 6.63 -22.04 16.70 -29.81 21.04 -2.10 1.19 -2.91 2 -3.77 3.77 -1.91 3.96 -8.68 15.93 -11.64 20.61 -8.01 12.64 -16.12 22.94 -25.85 32.91 -11.02 11.26 -22.23 19.84 -34.11 26.19 -9.87 5.25 -15.31 7.30 -24.47 9.35 -6.82 1.53 -16.60 1.67 -22.04 0.33z m20.99 -8.35 c15.69 -4.34 30.86 -14.50 47.99 -32.15 8.01 -8.25 14.21 -15.65 20.46 -24.42 5.01 -7.06 10.68 -16.17 10.30 -16.60 -0.19 -0.14 -1.10 -0.05 -2.10 0.24 -4.20 1.29 -34.58 11.78 -38.73 13.36 -31.43 12.02 -52.90 27.43 -61.10 43.84 -4.20 8.40 -2.77 14.17 4.15 16.46 4.01 1.29 12.97 1 19.03 -0.72z m132.13 -80.47 c2.62 -0.67 5.82 -3.34 6.96 -5.87 1.24 -2.72 1.14 -3.63 -0.24 -3.63 -2.05 0 -8.87 2.91 -11.31 4.87 -2.91 2.29 -3.01 3.63 -0.43 4.53 2.15 0.72 2.48 0.72 5.01 0.10z m50.99 -19.22 c16.03 -6.06 33.01 -20.08 28.67 -23.66 -1.24 -1.05 -7.01 -0.29 -10.54 1.38 -7.35 3.43 -15.93 12.26 -22.32 22.85 -0.52 0.91 0.76 0.72 4.20 -0.57z m-142.15 -26.24 c5.91 -3.96 17.08 -12.31 23.18 -17.41 7.20 -6.01 22.42 -21.23 28.43 -28.43 11.11 -13.36 18.32 -24.28 18.32 -27.95 l0 -1.48 -3.01 0.19 c-8.78 0.52 -23.47 11.69 -38.54 29.24 -8.54 9.97 -20.23 26.66 -28.33 40.55 -2.29 3.96 -4.25 7.30 -4.39 7.54 -0.48 0.76 0.67 0.19 4.34 -2.24z"/>
  <path d="M54.14 257.49 c-2.29 -0.43 -3.58 -1.10 -3.58 -1.81 0 -0.19 1.48 -0.48 3.29 -0.62 1.81 -0.14 5.63 -0.95 8.49 -1.76 22.51 -6.49 43.74 -26.71 64.11 -61.06 4.01 -6.73 6.06 -10.40 17.84 -31.96 15.93 -29.05 26.09 -44.79 38.83 -60.10 5.87 -7.01 16.79 -17.98 21.99 -21.99 9.54 -7.39 18.65 -12.35 22.71 -12.35 l2.29 0 -7.39 7.54 c-10.21 10.35 -14.60 15.55 -22.66 26.86 -8.01 11.16 -15.45 22.66 -23.85 36.78 -4.82 8.01 -14.98 26.66 -14.98 27.38 0 0.52 1.19 0.67 5.72 0.67 17.98 0 37.25 -5.01 53.23 -13.88 10.78 -5.96 19.46 -12.45 27.81 -20.61 18.56 -18.32 28.72 -38.40 27.57 -54.66 -0.95 -13.17 -7.63 -20.65 -21.51 -24.14 -9.21 -2.34 -14.69 -2.77 -32.25 -2.48 -16.98 0.29 -25.19 0.95 -37.44 3.05 -3.91 0.67 -8.20 1.38 -9.54 1.57 -2.58 0.38 -15.65 3.39 -19.56 4.48 -10.49 2.96 -19.18 5.77 -30.29 9.97 -8.40 3.15 -21.85 9.97 -30.96 15.69 -12.40 7.78 -24.04 19.75 -29.48 30.19 -4.58 8.87 -6.11 18.60 -4.01 25.52 0.95 3.05 1.48 3.91 4.01 6.44 5.15 5.15 11.07 7.35 20.99 7.73 4.15 0.19 6.06 0.43 5.91 0.81 -0.10 0.29 -1.96 1.14 -4.20 1.86 -11.64 3.91 -29.57 0.95 -39.31 -6.49 -5.39 -4.10 -8.20 -9.11 -8.68 -15.41 -1.57 -20.37 22.23 -43.55 66.88 -65.11 27.76 -13.40 61.49 -23.04 92.30 -26.43 9.59 -1.05 36.16 -1.48 44.08 -0.76 25.95 2.43 41.21 9.30 47.03 21.23 2.53 5.15 3.34 8.59 3.34 14.17 0 23.09 -19.13 50.23 -49.70 70.45 -19.70 13.02 -37.06 19.75 -58.43 22.56 -3.82 0.48 -16.41 0.38 -25.38 -0.19 -1.62 -0.10 -1.67 -0.05 -4.25 4.91 -17.89 34.82 -33.68 54.04 -56.43 68.83 -14.93 9.73 -33.58 15.22 -44.55 13.12z"/>
 </g>
</svg>